# xmcd
#
# Track frame offsets:
#	150
#	17525
#	25712
#	46905
#	58625
#	76150
#	91350
#	107000
#	120265
#	135937
#	154575
#	172372
#
# Disc length: 2499 seconds
#
# Revision: 2
# Processed by: cddbd v1.4PL0 Copyright (c) Steve Scherf et al.
# Submitted via: MusicManager 7.0.3.0 
#
DISCID=8409c10c
DTITLE=Ellis, Tinsley  - Georgia Blue
DYEAR=1988
DGENRE=
TTITLE0=Can't You Lie
TTITLE1=Texas Stomp
TTITLE2=You Picked A Good Time
TTITLE3=I've Made Nights By Myself
TTITLE4=Crime Of Passion
TTITLE5=Hot Potato
TTITLE6=Double Eyed Whammy
TTITLE7=She Wants To Sell My Monkey
TTITLE8=Look-Ka-Py-Py
TTITLE9=As The Years Go Passing By
TTITLE10=Free Man
TTITLE11=Lucky Lou
EXTD=
EXTT0=
EXTT1=
EXTT2=
EXTT3=
EXTT4=
EXTT5=
EXTT6=
EXTT7=
EXTT8=
EXTT9=
EXTT10=
EXTT11=
PLAYORDER=
